<svg xmlns="http://www.w3.org/2000/svg" version="1.1" xmlns:xlink="http://www.w3.org/1999/xlink" xmlns:svgjs="http://svgjs.com/svgjs" width="1000" height="1000"><rect width="1000" height="1000" rx="200" ry="200" fill="#ffffff"></rect><g transform="matrix(1,0,0,1,0,0)"><svg xmlns="http://www.w3.org/2000/svg" version="1.1" xmlns:xlink="http://www.w3.org/1999/xlink" xmlns:svgjs="http://svgjs.com/svgjs" width="200.000000pt" height="200.000000pt"><svg version="1.0" xmlns="http://www.w3.org/2000/svg" width="200.000000pt" height="200.000000pt" viewBox="0 0 200.000000 200.000000" preserveAspectRatio="xMidYMid meet">

<g transform="translate(0.000000,200.000000) scale(0.100000,-0.100000)" fill="#000000" stroke="none">
<path d="M1233 1490 c-17 -4 -48 -17 -68 -29 -29 -17 -40 -19 -57 -10 -29 16
-58 -13 -41 -40 10 -15 8 -22 -11 -40 -18 -17 -30 -20 -56 -15 -33 7 -33 7
-27 -27 5 -33 -1 -40 -198 -239 -111 -113 -209 -218 -218 -235 -14 -29 -92
-374 -85 -380 6 -6 355 73 380 86 13 6 118 106 234 221 125 124 214 205 218
199 10 -16 46 -14 52 3 3 8 1 23 -5 34 -15 28 28 69 56 54 29 -16 47 1 40 35
-4 21 2 45 19 78 60 120 3 264 -120 300 -54 16 -65 17 -113 5z m138 -81 c40
-28 59 -69 59 -124 0 -44 -22 -105 -38 -105 -4 0 -57 49 -117 110 l-109 109
45 21 c53 25 116 21 160 -11z m-31 -279 c-1 -3 -10 -16 -21 -29 l-20 -25 -112
112 -111 111 24 26 24 26 108 -108 c59 -59 108 -110 108 -113z m-197 12 l108
-108 -144 -147 c-79 -81 -148 -147 -153 -147 -5 0 -57 48 -116 107 l-108 108
147 147 c81 82 150 148 153 148 3 0 54 -49 113 -108z m-339 -341 l108 -108
-43 -42 c-24 -22 -50 -43 -58 -46 -46 -14 -254 -55 -259 -51 -5 6 8 77 35 200
13 56 24 78 56 113 22 24 42 43 46 43 3 0 55 -49 115 -109z"></path>
<path d="M652 780 c-45 -42 -34 -112 21 -138 57 -28 117 12 117 76 0 72 -86
111 -138 62z m83 -36 c19 -20 16 -43 -7 -58 -38 -23 -78 35 -42 61 23 17 29
16 49 -3z"></path>
</g>
</svg></svg></g></svg>